<svg width="85" height="76" viewBox="0 0 85 76" fill="none" xmlns="http://www.w3.org/2000/svg">
<g clip-path="url(#clip0_0_155)">
<path d="M70.751 15.6798H14.683V75.8563H70.751V15.6798Z" fill="url(#paint0_linear_0_155)"/>
<path d="M14.451 15.6798C14.5187 15.6798 14.5864 15.7088 14.6831 15.7378C14.6831 35.7579 14.6831 55.7781 14.6831 75.8272C10.3426 76.1656 6.67886 75.0732 3.76912 72.2698C1.71007 70.2784 0.714379 67.939 0.714379 65.2903C0.714379 55.9134 0.714379 46.5462 0.714379 37.1693C0.714379 33.5925 0.704712 30.0158 0.704712 26.439C0.704712 22.1179 3.03444 18.9762 7.31687 16.8495C9.52093 15.7668 11.9667 15.6024 14.451 15.6798Z" fill="url(#paint1_linear_0_155)"/>
<path d="M60.9585 15.6702C63.4622 15.6702 63.7135 15.6702 66.2076 15.6702C66.2076 35.758 66.2076 55.7781 66.2076 75.8369C49.1842 75.8369 36.3079 75.8369 19.2264 75.8369C19.2264 55.7878 19.2264 35.7676 19.2264 15.6895C21.7205 15.6895 22.2618 15.6895 24.8042 15.6895C24.8042 15.4381 24.8042 15.2448 24.8042 15.0611C24.8042 12.9054 24.8139 10.74 24.7946 8.58432C24.7752 7.07628 25.1813 5.76158 26.3606 4.73689C27.192 4.02154 28.149 3.6542 29.2317 3.6542C32.5861 3.64453 35.9308 3.64453 39.2853 3.64453C44.9211 3.64453 50.5665 3.6542 56.2023 3.64453C57.6814 3.64453 58.9091 4.12788 59.8758 5.24924C60.6491 6.14826 60.9391 7.20195 60.9391 8.38131C60.9295 10.653 60.9391 12.9248 60.9391 15.1965C60.9295 15.3221 60.9391 15.4671 60.9585 15.6702ZM30.8557 15.6702C31.0877 15.6702 31.2617 15.6702 31.4357 15.6702C34.1038 15.6702 36.7815 15.6702 39.4496 15.6702C44.4377 15.6702 49.4355 15.6702 54.4236 15.6798C54.82 15.6798 54.907 15.5542 54.907 15.1771C54.8876 13.4854 54.907 11.7937 54.907 10.102C54.907 9.96668 54.8876 9.83135 54.8683 9.68634C46.8448 9.68634 38.8696 9.68634 30.8557 9.68634C30.8557 11.6777 30.8557 13.6304 30.8557 15.6702Z" fill="#E7E7E7"/>
<mask id="mask0_0_155" style="mask-type:alpha" maskUnits="userSpaceOnUse" x="19" y="3" width="48" height="73">
<path d="M60.9585 15.6702C63.4622 15.6702 63.7135 15.6702 66.2076 15.6702C66.2076 35.758 66.2076 55.7781 66.2076 75.8369C49.1842 75.8369 36.3079 75.8369 19.2264 75.8369C19.2264 55.7878 19.2264 35.7676 19.2264 15.6895C21.7205 15.6895 22.2618 15.6895 24.8042 15.6895C24.8042 15.4381 24.8042 15.2448 24.8042 15.0611C24.8042 12.9054 24.8139 10.74 24.7946 8.58432C24.7752 7.07628 25.1813 5.76158 26.3606 4.73689C27.192 4.02154 28.149 3.6542 29.2317 3.6542C32.5861 3.64453 35.9308 3.64453 39.2853 3.64453C44.9211 3.64453 50.5665 3.6542 56.2023 3.64453C57.6814 3.64453 58.9091 4.12788 59.8758 5.24924C60.6491 6.14826 60.9391 7.20195 60.9391 8.38131C60.9294 10.653 60.9391 12.9248 60.9391 15.1965C60.9294 15.3221 60.9391 15.4672 60.9585 15.6702ZM30.8557 15.6702C31.0877 15.6702 31.2617 15.6702 31.4357 15.6702C34.1038 15.6702 36.7815 15.6702 39.4496 15.6702C44.4377 15.6702 49.4355 15.6702 54.4236 15.6798C54.82 15.6798 54.907 15.5542 54.907 15.1771C54.8876 13.4854 54.907 11.7937 54.907 10.102C54.907 9.96668 54.8876 9.83135 54.8683 9.68634C46.8448 9.68634 38.8696 9.68634 30.8557 9.68634C30.8557 11.6777 30.8557 13.6304 30.8557 15.6702Z" fill="#F7F9FC"/>
</mask>
<g mask="url(#mask0_0_155)">
<path d="M61.9226 0.918457H22.8394V15.6895H61.9226V0.918457Z" fill="url(#paint2_linear_0_155)"/>
</g>
<path d="M85.0001 26.2844C85.0001 22.3016 82.8251 19.3339 78.9583 17.1782C76.5803 15.8538 73.8832 15.6024 71.1185 15.6604C70.6931 15.6701 70.7511 15.8925 70.7511 16.1245C70.7511 23.0846 70.7511 30.0351 70.7511 36.9953C70.7511 49.2239 70.7511 61.4429 70.7415 73.6715C70.7415 74.3772 70.7415 75.0829 70.7415 75.8466C72.4815 75.9046 74.1345 75.9143 75.7586 75.5276C81.2494 74.2322 84.9905 70.1431 84.9905 65.3193C85.0098 52.3174 85.0001 39.296 85.0001 26.2844Z" fill="url(#paint3_linear_0_155)"/>
<path d="M47.2991 50.21C47.2991 51.457 47.2991 52.6364 47.2991 53.8254C47.2991 55.1691 47.2991 56.5128 47.2991 57.8468C47.2991 58.6492 46.8931 59.0745 46.1004 59.0745C43.9157 59.0842 41.731 59.0842 39.5463 59.0745C38.8212 59.0745 38.4152 58.6202 38.4152 57.8565C38.4152 55.4591 38.4152 53.0617 38.4152 50.6643C38.4152 50.529 38.4152 50.384 38.4152 50.21C38.2316 50.21 38.0962 50.21 37.9512 50.21C35.5925 50.21 33.2241 50.21 30.8654 50.21C29.9277 50.21 29.541 49.833 29.541 48.8953C29.541 46.8169 29.541 44.7385 29.541 42.6601C29.541 41.7128 29.918 41.3358 30.8557 41.3358C33.2048 41.3358 35.5538 41.3358 37.9029 41.3358C38.0576 41.3358 38.2026 41.3358 38.4056 41.3358C38.4056 41.1811 38.4056 41.0554 38.4056 40.9298C38.4056 38.5324 38.4056 36.135 38.4056 33.7376C38.4056 32.8482 38.8019 32.4615 39.6913 32.4615C41.7696 32.4615 43.848 32.4615 45.9264 32.4615C46.9028 32.4615 47.2798 32.8289 47.2798 33.8246C47.2894 36.2026 47.2798 38.571 47.2798 40.9491C47.2798 41.0651 47.2798 41.1811 47.2798 41.3454C47.4345 41.3454 47.5698 41.3454 47.6955 41.3454C50.0928 41.3454 52.4902 41.3454 54.8876 41.3551C55.7673 41.3551 56.1443 41.7418 56.1443 42.6215C56.1443 44.7095 56.1443 46.7976 56.1443 48.8856C56.1443 49.8426 55.777 50.21 54.8393 50.21C52.4516 50.21 50.0638 50.21 47.6858 50.2196C47.5891 50.21 47.4731 50.21 47.2991 50.21Z" fill="url(#paint4_linear_0_155)"/>
</g>
<defs>
<linearGradient id="paint0_linear_0_155" x1="14.6844" y1="45.7644" x2="70.7484" y2="45.7644" gradientUnits="userSpaceOnUse">
<stop stop-color="#B0F4FF"/>
<stop offset="1" stop-color="#69DCFC"/>
</linearGradient>
<linearGradient id="paint1_linear_0_155" x1="0.714379" y1="45.7739" x2="14.6845" y2="45.7739" gradientUnits="userSpaceOnUse">
<stop stop-color="#6CBCFC"/>
<stop offset="1" stop-color="#458DFC"/>
</linearGradient>
<linearGradient id="paint2_linear_0_155" x1="22.8353" y1="8.3024" x2="61.9209" y2="8.3024" gradientUnits="userSpaceOnUse">
<stop stop-color="#6CBCFC"/>
<stop offset="1" stop-color="#458DFC"/>
</linearGradient>
<linearGradient id="paint3_linear_0_155" x1="70.7438" y1="45.7679" x2="85.0009" y2="45.7679" gradientUnits="userSpaceOnUse">
<stop stop-color="#6CBCFC"/>
<stop offset="1" stop-color="#458DFC"/>
</linearGradient>
<linearGradient id="paint4_linear_0_155" x1="29.5469" y1="45.7777" x2="56.1637" y2="45.7777" gradientUnits="userSpaceOnUse">
<stop stop-color="#6CBCFC"/>
<stop offset="1" stop-color="#458DFC"/>
</linearGradient>
<clipPath id="clip0_0_155">
<rect width="84.2857" height="74.9668" fill="white" transform="translate(0.714355 0.918457)"/>
</clipPath>
</defs>
</svg>
