<svg width="72" height="101" viewBox="0 0 72 101" fill="none" xmlns="http://www.w3.org/2000/svg">
<g clip-path="url(#clip0_0_112)">
<path d="M71.427 95.7285C71.427 98.3475 69.3131 100.476 66.7012 100.476L5.58893 100.546C3.50993 100.546 1.74539 99.2058 1.10771 97.3402C0.941742 96.8584 0.854389 96.3504 0.854389 95.8161L0.758301 7.44544C0.758301 4.82647 2.87225 2.698 5.48411 2.698L61.5998 2.63669L66.5964 2.62793C69.2083 2.62793 71.3309 4.74763 71.3309 7.36661L71.427 95.7285Z" fill="url(#paint0_linear_0_112)"/>
<path d="M65.0939 95.2205L7.18744 95.2818C5.78105 95.2818 4.64546 94.1431 4.64546 92.7329L4.55811 10.4936C4.55811 9.08342 5.6937 7.94474 7.10008 7.94474L64.9978 7.88342C66.4042 7.88342 67.5398 9.02211 67.5398 10.4323L67.6271 92.6716C67.6358 94.073 66.5003 95.2205 65.0939 95.2205Z" fill="#E7E7E7"/>
<path d="M56.9613 14.6629L14.726 14.7155C13.3284 14.7155 12.184 13.5768 12.184 12.1754L12.1753 5.11552C12.1753 3.71407 13.3109 2.56662 14.7085 2.56662L56.9525 2.52283C58.3502 2.52283 59.4945 3.66151 59.4945 5.06297L59.5033 12.1228C59.4945 13.5243 58.3589 14.6629 56.9613 14.6629ZM14.7085 3.86297C14.0272 3.86297 13.4681 4.42355 13.4681 5.10676L13.4769 12.1666C13.4769 12.8498 14.0359 13.4104 14.7173 13.4104L56.9613 13.3666C57.6426 13.3666 58.2017 12.806 58.2017 12.1228L58.193 5.06297C58.193 4.37976 57.6339 3.81917 56.9525 3.81917L14.7085 3.86297Z" fill="url(#paint1_linear_0_112)"/>
<path d="M55.7645 5.57978L16.3245 5.62358C15.8877 5.62358 15.5383 5.27322 15.5383 4.83526V1.00753C15.5383 0.569575 15.8877 0.219211 16.3245 0.219211L55.7558 0.175415C56.1925 0.175415 56.5419 0.525779 56.5419 0.963735V4.79146C56.5507 5.22942 56.2013 5.57978 55.7645 5.57978Z" fill="url(#paint2_linear_0_112)"/>
<path d="M16.3596 5.62356L55.7297 5.57976C56.184 5.57976 56.5508 5.21188 56.5508 4.75641V2.88196L15.5298 2.92575V4.8002C15.5298 5.25567 15.9054 5.62356 16.3596 5.62356Z" fill="#58D6F4"/>
<path d="M30.1962 85.9709L26.7895 65.2994L24.0291 74.295L16.1324 74.3037C15.6519 74.3037 15.2676 73.9183 15.2676 73.4366C15.2676 72.9548 15.6519 72.5694 16.1324 72.5694L22.7625 72.5607L27.3136 57.749L30.7204 78.4731L35.1404 64.2395L37.4902 70.984L42.7838 58.1169L47.9289 78.5256L49.8682 72.0351L55.5461 72.0264C56.0266 72.0264 56.4109 72.4118 56.4109 72.8935C56.4109 73.3753 56.0266 73.7607 55.5461 73.7607L51.1523 73.7694L47.7892 85.0249L42.3907 63.6176L37.3505 75.8541L35.2278 69.7665L30.1962 85.9709Z" fill="#58D6F4"/>
<path d="M24.3437 46.117L13.2411 46.1257C11.4503 46.1257 9.9828 44.6629 9.9828 42.8673L9.96533 27.3024C9.96533 25.5068 11.4241 24.0352 13.2149 24.0352L24.3175 24.0265C26.1082 24.0265 27.5757 25.4893 27.5757 27.2849L27.5932 42.8498C27.5932 44.6454 26.1344 46.1082 24.3437 46.117ZM13.2061 24.9812C11.9308 24.9812 10.9 26.0236 10.9 27.3024L10.9175 42.8673C10.9175 44.1462 11.957 45.1797 13.2323 45.1797L24.3349 45.171C25.6103 45.171 26.6411 44.1286 26.6411 42.8498L26.6236 27.2849C26.6236 26.006 25.5841 24.9725 24.3087 24.9725L13.2061 24.9812Z" fill="url(#paint3_linear_0_112)"/>
<path d="M18.7793 43.1301C24.0292 43.1213 25.6627 40.0819 25.6627 40.0819C25.4269 39.7841 25.1299 39.5213 24.728 39.2585C23.3478 38.3563 22.2385 37.9709 21.7755 37.5855C21.3038 37.2089 21.0417 36.6571 21.0417 36.6571L20.7535 36.8323C20.7535 36.8323 20.5788 36.2279 20.6748 35.3082C20.6748 35.3082 21.0854 35.2031 21.3911 33.8104C21.8803 33.9067 22.4568 32.6629 22.1861 32.2075C22.0113 31.9096 21.8017 31.9359 21.6532 32.006C21.8017 31.3841 22.4743 27.9418 18.7705 27.9418C15.0668 27.9418 15.7394 31.3841 15.8966 32.006C15.7481 31.9359 15.5385 31.9096 15.3638 32.2075C15.093 32.6629 15.6782 33.9067 16.1674 33.8104C16.4731 35.2031 16.8924 35.2994 16.8924 35.2994C16.9973 36.2104 16.8138 36.8235 16.8138 36.8235L16.5256 36.6483C16.5256 36.6483 16.2635 37.1914 15.7918 37.5768C15.3201 37.9622 14.2194 38.3563 12.8393 39.2585C12.4374 39.5213 12.1317 39.7841 11.9046 40.0819C11.8958 40.0994 13.5381 43.1388 18.7793 43.1301Z" fill="url(#paint4_linear_0_112)"/>
<path d="M53.3538 28.9929L31.9784 29.0192C31.5766 29.0192 31.2534 28.6951 31.2534 28.2922V28.1695C31.2534 27.7666 31.5766 27.4425 31.9784 27.4425L53.3538 27.4163C53.7556 27.4163 54.0788 27.7403 54.0788 28.1433V28.2659C54.0788 28.6688 53.7469 28.9929 53.3538 28.9929Z" fill="url(#paint5_linear_0_112)"/>
<path d="M45.492 33.0746L31.9784 33.0921C31.5766 33.0921 31.2534 32.768 31.2534 32.3651V32.2425C31.2534 31.8395 31.5766 31.5154 31.9784 31.5154L45.492 31.4979C45.8938 31.4979 46.217 31.822 46.217 32.2249V32.3476C46.217 32.7505 45.8938 33.0746 45.492 33.0746Z" fill="url(#paint6_linear_0_112)"/>
<path opacity="0.6" d="M60.7262 37.9272L31.987 37.9623C31.5852 37.9623 31.262 37.6382 31.262 37.2353V37.1126C31.262 36.7097 31.5852 36.3856 31.987 36.3856L60.7262 36.3506C61.128 36.3506 61.4512 36.6747 61.4512 37.0776V37.2002C61.4425 37.6031 61.1193 37.9272 60.7262 37.9272Z" fill="url(#paint7_linear_0_112)"/>
<path opacity="0.6" d="M60.106 51.565L12.1665 51.6176C11.756 51.6176 11.4153 51.2848 11.4153 50.8643V50.7942C11.4153 50.3826 11.7472 50.041 12.1665 50.041L60.106 49.9884C60.5165 49.9884 60.8572 50.3212 60.8572 50.7417V50.8118C60.8572 51.2322 60.5165 51.565 60.106 51.565Z" fill="url(#paint8_linear_0_112)"/>
<path opacity="0.6" d="M60.7262 42.6921L31.987 42.7272C31.5852 42.7272 31.262 42.4031 31.262 42.0002V41.8775C31.262 41.4746 31.5852 41.1505 31.987 41.1505L60.7262 41.1155C61.128 41.1155 61.4512 41.4396 61.4512 41.8425V41.9651C61.4512 42.368 61.128 42.6921 60.7262 42.6921Z" fill="url(#paint9_linear_0_112)"/>
</g>
<defs>
<linearGradient id="paint0_linear_0_112" x1="-9.02799" y1="36.8845" x2="81.2601" y2="66.1412" gradientUnits="userSpaceOnUse">
<stop stop-color="#6CBCFC"/>
<stop offset="0.1713" stop-color="#5EABFC"/>
<stop offset="0.4084" stop-color="#509AFC"/>
<stop offset="0.6698" stop-color="#4890FC"/>
<stop offset="1" stop-color="#458DFC"/>
</linearGradient>
<linearGradient id="paint1_linear_0_112" x1="-4.74666" y1="-22.406" x2="59.562" y2="8.47931" gradientUnits="userSpaceOnUse">
<stop stop-color="#CFE9FF"/>
<stop offset="1" stop-color="#A1D6FB"/>
</linearGradient>
<linearGradient id="paint2_linear_0_112" x1="15.5283" y1="2.90052" x2="56.55" y2="2.90052" gradientUnits="userSpaceOnUse">
<stop stop-color="#B0F4FF"/>
<stop offset="1" stop-color="#69DCFC"/>
</linearGradient>
<linearGradient id="paint3_linear_0_112" x1="15.6505" y1="31.0315" x2="25.9901" y2="44.3428" gradientUnits="userSpaceOnUse">
<stop stop-color="#6CBCFC"/>
<stop offset="1" stop-color="#458DFC"/>
</linearGradient>
<linearGradient id="paint4_linear_0_112" x1="14.5329" y1="31.8996" x2="24.8725" y2="45.2109" gradientUnits="userSpaceOnUse">
<stop stop-color="#B0F4FF"/>
<stop offset="0.0994384" stop-color="#A1EFFE"/>
<stop offset="0.2994" stop-color="#88E7FD"/>
<stop offset="0.5095" stop-color="#77E1FD"/>
<stop offset="0.7344" stop-color="#6CDDFC"/>
<stop offset="1" stop-color="#69DCFC"/>
</linearGradient>
<linearGradient id="paint5_linear_0_112" x1="31.2546" y1="28.2249" x2="54.0742" y2="28.2386" gradientUnits="userSpaceOnUse">
<stop stop-color="#6CBCFC"/>
<stop offset="1" stop-color="#458DFC"/>
</linearGradient>
<linearGradient id="paint6_linear_0_112" x1="31.2588" y1="32.295" x2="46.2161" y2="32.295" gradientUnits="userSpaceOnUse">
<stop stop-color="#6CBCFC"/>
<stop offset="1" stop-color="#458DFC"/>
</linearGradient>
<linearGradient id="paint7_linear_0_112" x1="31.2636" y1="37.1612" x2="61.4464" y2="37.1612" gradientUnits="userSpaceOnUse">
<stop stop-color="#6CBCFC"/>
<stop offset="1" stop-color="#458DFC"/>
</linearGradient>
<linearGradient id="paint8_linear_0_112" x1="11.4149" y1="50.8076" x2="60.8548" y2="50.8076" gradientUnits="userSpaceOnUse">
<stop stop-color="#6CBCFC"/>
<stop offset="1" stop-color="#458DFC"/>
</linearGradient>
<linearGradient id="paint9_linear_0_112" x1="31.2684" y1="41.925" x2="61.4512" y2="41.925" gradientUnits="userSpaceOnUse">
<stop stop-color="#6CBCFC"/>
<stop offset="1" stop-color="#458DFC"/>
</linearGradient>
<clipPath id="clip0_0_112">
<rect width="70.6687" height="100.362" fill="white" transform="translate(0.758301 0.175415)"/>
</clipPath>
</defs>
</svg>
