<svg width="72" height="102" viewBox="0 0 72 102" fill="none" xmlns="http://www.w3.org/2000/svg">
<g clip-path="url(#clip0_0_76)">
<path d="M68.7358 0.744141H2.74016C1.38286 0.744141 0.285645 1.83039 0.285645 3.17413V98.684C0.285645 100.028 1.38286 101.114 2.74016 101.114H68.7358C70.0931 101.114 71.1904 100.028 71.1904 98.684V3.17413C71.1822 1.83039 70.085 0.744141 68.7358 0.744141Z" fill="url(#paint0_linear_0_76)"/>
<path d="M64.4039 5.07312H7.06406C5.7474 5.07312 4.67456 6.13524 4.67456 7.44679V86.4134C4.67456 87.725 5.7474 88.779 7.06406 88.779H64.4039C65.7287 88.779 66.7934 87.7169 66.7934 86.4134V7.44679C66.7934 6.13524 65.7287 5.07312 64.4039 5.07312Z" fill="#E7E7E7"/>
<path d="M47.4579 42.6172H24.018C22.9452 42.6172 22.0756 41.7562 22.0756 40.6941V17.4804C22.0756 16.4183 22.9452 15.5574 24.018 15.5574H47.4579C48.5307 15.5574 49.4004 16.4183 49.4004 17.4804V40.6861C49.4004 41.7482 48.5307 42.6172 47.4579 42.6172Z" fill="url(#paint1_linear_0_76)"/>
<path d="M35.738 98.5151C37.731 98.5151 39.3467 96.9156 39.3467 94.9425C39.3467 92.9695 37.731 91.37 35.738 91.37C33.745 91.37 32.1294 92.9695 32.1294 94.9425C32.1294 96.9156 33.745 98.5151 35.738 98.5151Z" fill="#E7E7E7"/>
<path d="M56.1625 54.6384H15.3053C14.2731 54.6384 13.4279 53.8016 13.4279 52.7797C13.4279 51.7578 14.2731 50.921 15.3053 50.921H56.1544C57.1866 50.921 58.0318 51.7578 58.0318 52.7797C58.0318 53.8016 57.1947 54.6384 56.1625 54.6384Z" fill="url(#paint2_linear_0_76)"/>
<path opacity="0.6" d="M49.246 64.9378H14.6227C13.9643 64.9378 13.436 64.4067 13.436 63.763V63.6342C13.436 62.9825 13.9725 62.4595 14.6227 62.4595H49.246C49.9043 62.4595 50.4326 62.9905 50.4326 63.6342V63.763C50.4408 64.4067 49.9043 64.9378 49.246 64.9378Z" fill="url(#paint3_linear_0_76)"/>
<path opacity="0.3" d="M42.6545 71.4795H14.5088C13.9155 71.4795 13.4279 70.9967 13.4279 70.4093V70.0553C13.4279 69.4679 13.9155 68.9851 14.5088 68.9851H42.6464C43.2397 68.9851 43.7273 69.4679 43.7273 70.0553V70.4093C43.7273 70.9967 43.2397 71.4795 42.6545 71.4795Z" fill="url(#paint4_linear_0_76)"/>
<path opacity="0.6" d="M46.1982 77.5383H14.5739C13.9481 77.5383 13.436 77.0314 13.436 76.4118V76.1865C13.436 75.567 13.9481 75.0601 14.5739 75.0601H46.1982C46.824 75.0601 47.336 75.567 47.336 76.1865V76.4118C47.336 77.0234 46.824 77.5383 46.1982 77.5383Z" fill="url(#paint5_linear_0_76)"/>
<path d="M35.8084 28.3392C38.1553 28.3392 40.0577 26.4306 40.0577 24.076C40.0577 21.7215 38.1553 19.8129 35.8084 19.8129C33.4615 19.8129 31.559 21.7215 31.559 24.076C31.559 26.4306 33.4526 28.3392 35.8084 28.3392ZM35.8084 30.4707C32.9725 30.4707 27.3097 31.8977 27.3097 34.7339V35.8041C27.3097 36.3928 27.7897 36.8744 28.3765 36.8744H43.2581C43.8448 36.8744 44.3249 36.3928 44.3249 35.8041V34.7339C44.3071 31.9067 38.6443 30.4707 35.8084 30.4707Z" fill="#E7E7E7"/>
</g>
<defs>
<linearGradient id="paint0_linear_0_76" x1="4.58104" y1="48.3158" x2="71.2405" y2="54.0148" gradientUnits="userSpaceOnUse">
<stop stop-color="#6CBCFC"/>
<stop offset="1" stop-color="#458DFC"/>
</linearGradient>
<linearGradient id="paint1_linear_0_76" x1="19.9566" y1="21.1253" x2="51.3833" y2="37.2996" gradientUnits="userSpaceOnUse">
<stop stop-color="#B0F4FF"/>
<stop offset="0.0856277" stop-color="#A3F0FE"/>
<stop offset="0.2972" stop-color="#8AE7FD"/>
<stop offset="0.5161" stop-color="#77E1FD"/>
<stop offset="0.7451" stop-color="#6DDDFC"/>
<stop offset="1" stop-color="#69DCFC"/>
</linearGradient>
<linearGradient id="paint2_linear_0_76" x1="58.0358" y1="52.7812" x2="13.4355" y2="52.7812" gradientUnits="userSpaceOnUse">
<stop stop-color="#6CBCFC"/>
<stop offset="1" stop-color="#458DFC"/>
</linearGradient>
<linearGradient id="paint3_linear_0_76" x1="50.4384" y1="63.695" x2="13.4356" y2="63.695" gradientUnits="userSpaceOnUse">
<stop stop-color="#6CBCFC"/>
<stop offset="1" stop-color="#458DFC"/>
</linearGradient>
<linearGradient id="paint4_linear_0_76" x1="43.7282" y1="70.2368" x2="13.4355" y2="70.2368" gradientUnits="userSpaceOnUse">
<stop stop-color="#6CBCFC"/>
<stop offset="1" stop-color="#458DFC"/>
</linearGradient>
<linearGradient id="paint5_linear_0_76" x1="47.3354" y1="76.2927" x2="13.4356" y2="76.2927" gradientUnits="userSpaceOnUse">
<stop stop-color="#6CBCFC"/>
<stop offset="1" stop-color="#458DFC"/>
</linearGradient>
<clipPath id="clip0_0_76">
<rect width="70.8966" height="100.362" fill="white" transform="translate(0.285645 0.744141)"/>
</clipPath>
</defs>
</svg>
