<svg width="68" height="92" viewBox="0 0 68 92" fill="none" xmlns="http://www.w3.org/2000/svg">
<g clip-path="url(#clip0_0_97)">
<path d="M67.1594 29.1921L66.9513 71.9162L66.9167 80.1798C66.882 86.7461 60.5701 92.0438 52.8016 92.0095L13.9937 91.8381C6.24257 91.7866 -0.0346599 86.4375 2.09457e-05 79.8541L0.242787 28.8664C0.260127 23.5516 4.42183 19.0597 10.1095 17.5682L10.1268 14.825V13.4192L57.4141 13.6421L57.3968 17.791C63.0671 19.3512 67.1768 23.8602 67.1594 29.1921Z" fill="url(#paint0_linear_0_97)"/>
<path d="M60.9342 2.66964V3.04682L60.8995 7.50438L60.8648 11.8762V12.4077C60.8648 13.2306 60.1712 13.8993 59.3389 13.8993H58.9747L56.6858 13.8821L54.1714 13.865L51.8825 13.8478L49.3682 13.8307L47.0445 13.7964L44.5302 13.7793L42.2412 13.7621L39.7095 13.745L37.4033 13.7278L34.8889 13.7107L32.6 13.6764L30.0856 13.6593L27.7967 13.6421L25.265 13.625L22.9587 13.6078L20.4617 13.5907L18.1727 13.5735L15.6584 13.5564L13.3521 13.5392L10.8377 13.5221L8.53146 13.505H8.16731C7.33497 13.505 6.65869 12.8192 6.65869 11.9962V11.9791V11.6019L6.72805 2.78965V2.25817C6.72805 1.43524 7.42167 0.766602 8.27135 0.766602H8.6355L13.4561 0.800891L18.2768 0.83518L20.583 0.852324L23.0974 0.869468L25.3863 0.886613L30.1896 0.938046L32.704 0.955191L34.9929 0.972335L37.5073 0.98948L39.7962 1.00662L42.3106 1.02377L44.5995 1.04091L47.1139 1.05806L49.4028 1.0752L51.9519 1.10949L54.2408 1.12664L56.7552 1.14378L59.0614 1.16092H59.4256C60.2753 1.17807 60.9342 1.8467 60.9342 2.66964Z" fill="url(#paint1_linear_0_97)"/>
<path d="M60.9342 3.06398L60.8995 7.50441L60.8648 11.8763L58.8013 11.8591L56.0616 11.842L53.5472 11.8248H50.7901L48.2757 11.8077L45.5359 11.7905L43.0216 11.7734H40.2644L37.7501 11.7562L34.9929 11.7391L32.4959 11.722H29.7388L27.2244 11.7048L24.4673 11.6877L21.9529 11.6705H19.2132L16.6988 11.6534L13.9417 11.6362L11.4273 11.6191H8.68752L6.65869 11.6019L6.72805 2.78967L11.5487 2.80682L16.8028 2.84111L19.3172 2.85825L22.0743 2.8754H24.5887L29.8428 2.90968L32.6 2.92683H35.1143L37.8715 2.94397L40.3685 2.96112L43.1256 2.97826H45.64L48.3971 2.99541L50.8941 3.01255L53.6512 3.0297H56.1656L58.9227 3.04684L60.9342 3.06398Z" fill="url(#paint2_linear_0_97)"/>
<path d="M67.1086 38.2129L0.191895 37.8999L0.0516226 67.2341L66.9683 67.5471L67.1086 38.2129Z" fill="#F7F9FC"/>
<path d="M67.1204 38.2128L0.203735 37.8999L0.178493 43.1804L67.0952 43.4933L67.1204 38.2128Z" fill="#FBFCF7"/>
<path d="M26.2881 49.6947L21.9704 49.6775L21.9877 45.3914L16.04 45.3743L16.0226 49.6432L11.7048 49.6261L11.6702 55.4895L15.9879 55.5067L15.9706 59.7928L21.9184 59.8099L21.9357 55.5409L26.2535 55.5581L26.2881 49.6947Z" fill="url(#paint3_linear_0_97)"/>
<path d="M55.6281 51.1177L34.23 51.0148C33.6578 51.0148 33.1896 50.5519 33.1896 49.9861V49.5061C33.1896 48.9403 33.6578 48.4774 34.23 48.4774L55.6281 48.5803C56.2003 48.5803 56.6685 49.0432 56.6685 49.609V50.089C56.6685 50.6548 56.2003 51.1177 55.6281 51.1177Z" fill="url(#paint4_linear_0_97)"/>
<path opacity="0.5" d="M55.6107 57.4097L34.2127 57.3068C33.6404 57.3068 33.1722 56.8439 33.1722 56.2781V55.7981C33.1722 55.2323 33.6404 54.7694 34.2127 54.7694L55.6107 54.8723C56.183 54.8723 56.6512 55.3352 56.6512 55.9009V56.381C56.6512 56.9468 56.183 57.4097 55.6107 57.4097Z" fill="url(#paint5_linear_0_97)"/>
<path opacity="0.08" d="M6.65869 2.6696V3.04678L6.69337 7.50435L6.72805 11.859V12.3905C6.72805 13.2135 7.42167 13.8821 8.25401 13.8821H8.61816L10.9244 13.865L13.4388 13.8478L15.7277 13.8307L18.2421 13.8135L20.531 13.7964L23.0454 13.7792L25.3343 13.7621L27.8487 13.7449L30.155 13.7278L32.6693 13.7107L34.9583 13.6935L37.4726 13.6764L39.7616 13.6592L42.2759 13.6421L44.5822 13.6249L47.0966 13.6078L49.3855 13.5906L51.8998 13.5735L54.1888 13.5564L56.7031 13.5392L59.0094 13.5221H59.3736C60.2059 13.5221 60.8822 12.8363 60.8822 12.0133V11.9962V11.619C34.0566 12.7677 8.16731 1.16089 8.16731 1.16089C7.33497 1.17803 6.65869 1.84667 6.65869 2.6696Z" fill="#1A6FB5"/>
</g>
<defs>
<linearGradient id="paint0_linear_0_97" x1="2.05909e-05" y1="12.9323" x2="61.1153" y2="98.2454" gradientUnits="userSpaceOnUse">
<stop stop-color="#6CBCFC"/>
<stop offset="1" stop-color="#458DFC"/>
</linearGradient>
<linearGradient id="paint1_linear_0_97" x1="-683.924" y1="-42.0972" x2="-30.0427" y2="3.96731" gradientUnits="userSpaceOnUse">
<stop stop-color="#B0F4FF"/>
<stop offset="0.0525488" stop-color="#A9F2FF"/>
<stop offset="0.2879" stop-color="#8DE8FE"/>
<stop offset="0.5247" stop-color="#79E1FD"/>
<stop offset="0.7618" stop-color="#6DDDFC"/>
<stop offset="1" stop-color="#69DCFC"/>
</linearGradient>
<linearGradient id="paint2_linear_0_97" x1="6.66618" y1="7.32873" x2="60.9365" y2="7.32873" gradientUnits="userSpaceOnUse">
<stop stop-color="#B0F4FF"/>
<stop offset="0.0525488" stop-color="#A9F2FF"/>
<stop offset="0.2879" stop-color="#8DE8FE"/>
<stop offset="0.5247" stop-color="#79E1FD"/>
<stop offset="0.7618" stop-color="#6DDDFC"/>
<stop offset="1" stop-color="#69DCFC"/>
</linearGradient>
<linearGradient id="paint3_linear_0_97" x1="23.8618" y1="47.0271" x2="13.8092" y2="58.7518" gradientUnits="userSpaceOnUse">
<stop stop-color="#6CBCFC"/>
<stop offset="1" stop-color="#458DFC"/>
</linearGradient>
<linearGradient id="paint4_linear_0_97" x1="56.8749" y1="49.792" x2="31.3627" y2="49.792" gradientUnits="userSpaceOnUse">
<stop stop-color="#6CBCFC"/>
<stop offset="1" stop-color="#458DFC"/>
</linearGradient>
<linearGradient id="paint5_linear_0_97" x1="33.1706" y1="56.0836" x2="56.6515" y2="56.0836" gradientUnits="userSpaceOnUse">
<stop stop-color="#6CBCFC"/>
<stop offset="1" stop-color="#458DFC"/>
</linearGradient>
<clipPath id="clip0_0_97">
<rect width="67.1594" height="91.2429" fill="white" transform="translate(0 0.766602)"/>
</clipPath>
</defs>
</svg>
